<svg data-v-d3f97b9e="" xmlns="http://www.w3.org/2000/svg" viewBox="0 0 235.44359428973084 163"><!----><!----><!----><g data-v-d3f97b9e="" id="762b243e-12a6-4d89-bdcf-8a6086b266ed" fill="white" transform="matrix(4.258339489801132,0,0,4.258339489801132,-1.0645840742004822,93.20581770758079)"><path d="M3.61 13.68L3.61 13.68Q2.66 13.68 1.74 13.46L1.74 13.46L1.74 13.46Q0.81 13.24 0.25 12.89L0.25 12.89L1.05 11.07L1.05 11.07Q1.57 11.40 2.28 11.58L2.28 11.58L2.28 11.58Q3.00 11.77 3.70 11.77L3.70 11.77L3.70 11.77Q4.34 11.77 4.61 11.64L4.61 11.64L4.61 11.64Q4.89 11.51 4.89 11.26L4.89 11.26L4.89 11.26Q4.89 11.00 4.56 10.90L4.56 10.90L4.56 10.90Q4.23 10.79 3.51 10.70L3.51 10.70L3.51 10.70Q2.60 10.58 1.97 10.40L1.97 10.40L1.97 10.40Q1.33 10.22 0.87 9.73L0.87 9.73L0.87 9.73Q0.41 9.24 0.41 8.36L0.41 8.36L0.41 8.36Q0.41 7.63 0.84 7.06L0.84 7.06L0.84 7.06Q1.27 6.50 2.11 6.17L2.11 6.17L2.11 6.17Q2.94 5.84 4.10 5.84L4.10 5.84L4.10 5.84Q4.93 5.84 5.74 6.01L5.74 6.01L5.74 6.01Q6.55 6.17 7.10 6.48L7.10 6.48L6.30 8.29L6.30 8.29Q5.29 7.73 4.12 7.73L4.12 7.73L4.12 7.73Q3.49 7.73 3.19 7.87L3.19 7.87L3.19 7.87Q2.90 8.02 2.90 8.26L2.90 8.26L2.90 8.26Q2.90 8.53 3.22 8.63L3.22 8.63L3.22 8.63Q3.54 8.74 4.28 8.85L4.28 8.85L4.28 8.85Q5.22 8.99 5.84 9.17L5.84 9.17L5.84 9.17Q6.45 9.35 6.91 9.83L6.91 9.83L6.91 9.83Q7.36 10.32 7.36 11.19L7.36 11.19L7.36 11.19Q7.36 11.90 6.93 12.47L6.93 12.47L6.93 12.47Q6.50 13.03 5.65 13.36L5.65 13.36L5.65 13.36Q4.80 13.68 3.61 13.68L3.61 13.68ZM13.09 11.38L13.75 13.24L13.75 13.24Q13.41 13.45 12.93 13.57L12.93 13.57L12.93 13.57Q12.45 13.68 11.90 13.68L11.90 13.68L11.90 13.68Q10.42 13.68 9.62 12.95L9.62 12.95L9.62 12.95Q8.82 12.22 8.82 10.78L8.82 10.78L8.82 8.23L7.71 8.23L7.71 6.24L8.82 6.24L8.82 4.27L11.48 4.27L11.48 6.24L13.22 6.24L13.22 8.23L11.48 8.23L11.48 10.75L11.48 10.75Q11.48 11.16 11.70 11.39L11.70 11.39L11.70 11.39Q11.91 11.62 12.28 11.62L12.28 11.62L12.28 11.62Q12.74 11.62 13.09 11.38L13.09 11.38ZM18.00 5.84L18.00 5.84Q19.89 5.84 20.89 6.70L20.89 6.70L20.89 6.70Q21.88 7.56 21.88 9.34L21.88 9.34L21.88 13.55L19.40 13.55L19.40 12.57L19.40 12.57Q18.83 13.68 17.16 13.68L17.16 13.68L17.16 13.68Q16.28 13.68 15.64 13.37L15.64 13.37L15.64 13.37Q14.99 13.06 14.67 12.54L14.67 12.54L14.67 12.54Q14.34 12.01 14.34 11.34L14.34 11.34L14.34 11.34Q14.34 10.26 15.16 9.67L15.16 9.67L15.16 9.67Q15.99 9.07 17.71 9.07L17.71 9.07L19.22 9.07L19.22 9.07Q19.15 7.87 17.61 7.87L17.61 7.87L17.61 7.87Q17.07 7.87 16.51 8.04L16.51 8.04L16.51 8.04Q15.95 8.22 15.55 8.53L15.55 8.53L14.66 6.72L14.66 6.72Q15.29 6.30 16.19 6.07L16.19 6.07L16.19 6.07Q17.09 5.84 18.00 5.84L18.00 5.84ZM17.91 12.00L17.91 12.00Q18.37 12.00 18.72 11.77L18.72 11.77L18.72 11.77Q19.07 11.55 19.22 11.12L19.22 11.12L19.22 10.46L18.07 10.46L18.07 10.46Q16.91 10.46 16.91 11.23L16.91 11.23L16.91 11.23Q16.91 11.58 17.18 11.79L17.18 11.79L17.18 11.79Q17.44 12.00 17.91 12.00L17.91 12.00ZM28.14 11.38L28.80 13.24L28.80 13.24Q28.46 13.45 27.98 13.57L27.98 13.57L27.98 13.57Q27.50 13.68 26.95 13.68L26.95 13.68L26.95 13.68Q25.47 13.68 24.67 12.95L24.67 12.95L24.67 12.95Q23.87 12.22 23.87 10.78L23.87 10.78L23.87 8.23L22.76 8.23L22.76 6.24L23.87 6.24L23.87 4.27L26.53 4.27L26.53 6.24L28.27 6.24L28.27 8.23L26.53 8.23L26.53 10.75L26.53 10.75Q26.53 11.16 26.75 11.39L26.75 11.39L26.75 11.39Q26.96 11.62 27.33 11.62L27.33 11.62L27.33 11.62Q27.79 11.62 28.14 11.38L28.14 11.38ZM29.82 13.55L29.82 5.96L32.48 5.96L32.48 13.55L29.82 13.55ZM31.15 5.12L31.15 5.12Q30.42 5.12 29.97 4.72L29.97 4.72L29.97 4.72Q29.53 4.31 29.53 3.71L29.53 3.71L29.53 3.71Q29.53 3.11 29.97 2.70L29.97 2.70L29.97 2.70Q30.42 2.30 31.15 2.30L31.15 2.30L31.15 2.30Q31.88 2.30 32.33 2.68L32.33 2.68L32.33 2.68Q32.77 3.07 32.77 3.67L32.77 3.67L32.77 3.67Q32.77 4.30 32.33 4.71L32.33 4.71L32.33 4.71Q31.88 5.12 31.15 5.12L31.15 5.12ZM36.96 13.68L36.96 13.68Q36.01 13.68 35.08 13.46L35.08 13.46L35.08 13.46Q34.16 13.24 33.60 12.89L33.60 12.89L34.40 11.07L34.40 11.07Q34.92 11.40 35.63 11.58L35.63 11.58L35.63 11.58Q36.34 11.77 37.04 11.77L37.04 11.77L37.04 11.77Q37.69 11.77 37.96 11.64L37.96 11.64L37.96 11.64Q38.23 11.51 38.23 11.26L38.23 11.26L38.23 11.26Q38.23 11.00 37.91 10.90L37.91 10.90L37.91 10.90Q37.58 10.79 36.86 10.70L36.86 10.70L36.86 10.70Q35.95 10.58 35.31 10.40L35.31 10.40L35.31 10.40Q34.68 10.22 34.22 9.73L34.22 9.73L34.22 9.73Q33.75 9.24 33.75 8.36L33.75 8.36L33.75 8.36Q33.75 7.63 34.19 7.06L34.19 7.06L34.19 7.06Q34.62 6.50 35.45 6.17L35.45 6.17L35.45 6.17Q36.29 5.84 37.45 5.84L37.45 5.84L37.45 5.84Q38.28 5.84 39.09 6.01L39.09 6.01L39.09 6.01Q39.90 6.17 40.45 6.48L40.45 6.48L39.65 8.29L39.65 8.29Q38.64 7.73 37.46 7.73L37.46 7.73L37.46 7.73Q36.83 7.73 36.54 7.87L36.54 7.87L36.54 7.87Q36.25 8.02 36.25 8.26L36.25 8.26L36.25 8.26Q36.25 8.53 36.57 8.63L36.57 8.63L36.57 8.63Q36.89 8.74 37.63 8.85L37.63 8.85L37.63 8.85Q38.57 8.99 39.19 9.17L39.19 9.17L39.19 9.17Q39.80 9.35 40.26 9.83L40.26 9.83L40.26 9.83Q40.71 10.32 40.71 11.19L40.71 11.19L40.71 11.19Q40.71 11.90 40.28 12.47L40.28 12.47L40.28 12.47Q39.84 13.03 39.00 13.36L39.00 13.36L39.00 13.36Q38.15 13.68 36.96 13.68L36.96 13.68ZM44.76 6.08L44.76 6.24L46.56 6.24L46.56 8.23L44.83 8.23L44.83 13.55L42.17 13.55L42.17 8.23L41.06 8.23L41.06 6.24L42.17 6.24L42.17 6.05L42.17 6.05Q42.17 4.66 43.00 3.85L43.00 3.85L43.00 3.85Q43.83 3.04 45.33 3.04L45.33 3.04L45.33 3.04Q45.84 3.04 46.31 3.14L46.31 3.14L46.31 3.14Q46.79 3.23 47.10 3.43L47.10 3.43L46.44 5.31L46.44 5.31Q46.05 5.08 45.64 5.08L45.64 5.08L45.64 5.08Q45.22 5.08 44.99 5.33L44.99 5.33L44.99 5.33Q44.76 5.59 44.76 6.08L44.76 6.08ZM53.00 5.96L55.54 5.96L52.26 13.86L52.26 13.86Q51.69 15.26 50.86 15.83L50.86 15.83L50.86 15.83Q50.04 16.39 48.85 16.39L48.85 16.39L48.85 16.39Q48.24 16.39 47.63 16.20L47.63 16.20L47.63 16.20Q47.03 16.02 46.65 15.71L46.65 15.71L47.57 13.85L47.57 13.85Q47.80 14.06 48.11 14.17L48.11 14.17L48.11 14.17Q48.43 14.29 48.75 14.29L48.75 14.29L48.75 14.29Q49.13 14.29 49.37 14.14L49.37 14.14L49.37 14.14Q49.62 13.99 49.78 13.65L49.78 13.65L46.54 5.96L49.27 5.96L51.13 10.60L53.00 5.96Z"></path></g><!----><g data-v-d3f97b9e="" id="9056639e-9f2a-4f1e-9aee-e70829ce6245" transform="matrix(1.2904122095419015,0,0,1.2904122095419015,53.39422839121568,-15.645397809011314)" stroke="none" fill="white"><path d="M99.965 53.574a.86.86 0 0 0 .025-.053c.012-.025.024-.05.034-.076l.023-.062c.008-.023.017-.047.024-.071l.019-.073.015-.064.013-.084.007-.057c.003-.031.004-.062.005-.093l.002-.04-.001-.012c0-.03-.002-.06-.005-.09a1.091 1.091 0 0 0-.015-.127c-.004-.024-.007-.049-.012-.073l-.011-.043c-.008-.032-.015-.064-.025-.095l-.007-.02a1.817 1.817 0 0 0-.041-.111l-.02-.041c-.013-.028-.026-.057-.041-.084a1.269 1.269 0 0 0-.068-.111l-.004-.007a1.267 1.267 0 0 0-.083-.11l-.001-.001c-.023-.028-.048-.054-.073-.08l-.023-.024c-.019-.019-.04-.036-.06-.054l-.048-.043-.049-.037c-.023-.017-.046-.035-.07-.05l-.01-.007c-.012-.008-.024-.014-.037-.021a1.234 1.234 0 0 0-.209-.104l-.061-.023c-.024-.008-.047-.017-.072-.024a.923.923 0 0 0-.071-.018l-.066-.015a1.13 1.13 0 0 0-.081-.012c-.02-.003-.039-.006-.059-.007-.03-.003-.06-.004-.09-.005l-.043-.002H81.584l-3.441-8.907a1.453 1.453 0 0 0-2.742.089l-2.762 8.817h-4.69L63.59 40.454a1.45 1.45 0 0 0-2.46-.402l-3.984 4.711-9.05-16.9a1.456 1.456 0 0 0-1.167-.763 1.449 1.449 0 0 0-1.272.571l-9.232 12.177-6.418-11.985a1.456 1.456 0 0 0-1.167-.763 1.449 1.449 0 0 0-1.272.571l-1.253 1.653-3.368-15.625a1.453 1.453 0 0 0-2.803-.14l-5.689 17.63-3.044-4.976a1.453 1.453 0 0 0-2.616.295l-8.72 25.93-.003.011a.225.225 0 0 0-.008.024l-.015.057-.003.011c-.004.017-.01.035-.013.052l-.009.047a1.789 1.789 0 0 0-.015.1l-.001.01-.002.043a.907.907 0 0 0-.006.09v.019l.002.035c.001.029.001.058.003.086l.002.016.007.053.009.068.004.019c.004.022.01.043.015.064l.012.051.007.023.023.067.014.04a.306.306 0 0 0 .011.027l.029.064.017.038.014.028.032.056a1.49 1.49 0 0 0 .041.066c.01.016.022.031.033.046l.035.048.016.02.032.037.049.055a.1.1 0 0 0 .01.011l.005.005.03.028a1.618 1.618 0 0 0 .077.07l.03.023c.022.017.043.034.066.05l.057.037.06.036.02.012.053.026.052.025a.256.256 0 0 0 .024.011l.062.023.002.001.035.014a.164.164 0 0 1 .011.003l.023.008.053.014a1.072 1.072 0 0 0 .068.018c.021.005.043.008.064.011l.007.001.075.012.009.001.042.002c.031.002.061.005.092.005h27.302l1.921 8.913a1.453 1.453 0 0 0 2.598.546l2.844-3.927 2.437 10.121a1.454 1.454 0 0 0 2.746.236l3.704-8.564 5.59 19.563a1.453 1.453 0 0 0 2.597.42l7.576-11.107 3.222 6.672a1.454 1.454 0 0 0 2.529.157l8.948-13.852 6.612 13.695a1.454 1.454 0 0 0 2.529.157L99.898 53.69l.021-.036.046-.08zm-23.034-6.106l.22.57a.935.935 0 0 0-.327-.06l-.054.003.161-.513zm-1.154 3.682a.94.94 0 0 0 .456-1.454l.012-.04a.937.937 0 0 0 1.412-.307l.038.098a.939.939 0 0 0 .668 1.73l.105.272h-.718a.937.937 0 1 0-1.85 0h-.215l.092-.299zm-10.954.298H49.859l-.019-.049H64.803l.02.049zm-25.767-6.686l-.077-.144h.198l-.121.144zm25.375 5.698H49.468l-.159-.402h14.964l.158.402zm-3.358-5.841h1.042l.16.402h-1.542l.34-.402zm-1.134 1.341h2.708l.16.402h-3.208l.34-.402zm-1.134 1.341h4.374l.159.402h-4.874l.341-.402zm-2.083 1.478c.272.029.543-.021.783-.136h6.206l.189.476H48.937l-.189-.476h7.498c.147.071.308.118.476.136zm-1.298-1.075h-7.049l-.16-.402h6.993l.216.402zm-.718-1.342h-6.863l-.16-.402h6.807l.216.402zm-.718-1.341h-6.676l-.159-.402H53.774l.214.402zm-.719-1.341H46.78l-.16-.402h6.434l.215.402zm-.718-1.341h-6.303l-.159-.402h6.248l.214.402zm-.718-1.342h-6.117l-.159-.402h6.061l.215.402zm-5.229-9.765l.202.376h-.487l.285-.376zm-.998 1.315h1.702l.215.402h-2.222l.305-.402zm-1.017 1.342h3.437l.215.402h-3.957l.305-.402zm-1.017 1.341H48.744l.215.402h-5.693l.306-.402zm-1.017 1.341h6.907l.215.402H42.25l.305-.402zm-1.016 1.341h8.643l.215.402h-9.163l.305-.402zm-1.017 1.342H50.9l.215.402h-6.388a1.45 1.45 0 0 0-1.154 0h-3.356l.305-.402zm-1.017 1.341h3.076l-.34.402H39.2l.305-.402zm-1.017 1.341h2.958l-.34.402h-2.923l.305-.402zm.753 1.342h1.071l-.34.402h-1.495l-.215-.402h.979zM28.514 31.232l8.99 16.788a1.452 1.452 0 0 0 2.39.252l3.799-4.492 3.04 7.669H5.008L8.929 47.6l3.307 2.637a1.453 1.453 0 0 0 2.063-.258l14.215-18.747zm-7.443-11.084a.958.958 0 0 0 .235-.272l.019.087a.936.936 0 0 0-.288.293l.034-.108zm-10.66 10.668a.942.942 0 0 0 .216-.315l.079.129a.938.938 0 0 0-.312.235l.017-.049zM4.98 46.969a.936.936 0 0 0 .324-.965l.081-.24a.938.938 0 0 0 .598-1.775l.159-.472-.002.037a.938.938 0 1 0 .171-.539l.027-.081A.937.937 0 0 0 6.652 42l.086-.256a.938.938 0 0 0 .597-1.777l.146-.436a.94.94 0 1 0 .192-.57l.023-.068a.935.935 0 0 0 .302-.899l.091-.271a.94.94 0 0 0 .598-1.778l.137-.408a.938.938 0 1 0 .211-.628l.018-.055a.935.935 0 0 0 .289-.86l.098-.291a.938.938 0 0 0 .599-1.779l.128-.381a.938.938 0 0 0 1.513.676l.019.032a.938.938 0 0 0 .914 1.493l.235.385-.002.034c0 .377.222.701.542.85l.238.389c.167.273.414.477.699.591a.938.938 0 0 0 1.738-.526c.079-.114.142-.241.185-.377l.004-.014a.938.938 0 0 0 .574-1.78l.075-.232a.938.938 0 1 0 .313-.97l.339-1.052a.94.94 0 0 0 .576-1.784l.096-.296a.939.939 0 1 0 .27-.837l.015-.047a.938.938 0 0 0 .231-.716l.114-.354a.94.94 0 0 0 .577-1.787l.122-.379a.938.938 0 1 0 .216-.672l.388-1.201a.938.938 0 0 0 .575-1.784l.161-.5c-.001.021-.003.042-.003.064 0 .472.348.861.801.928l.176.818-.038-.002a.938.938 0 1 0 .421 1.778l.039.182a.936.936 0 0 0 .21.978l.008.037a.938.938 0 1 0 .206.959l.041.19a.938.938 0 0 0 .383 1.778l.176.819a.938.938 0 1 0 .369 1.713l.018.082a.936.936 0 0 0 .267 1.238l.032.129a.94.94 0 1 0-1.033 1.361l-.209.276a.938.938 0 1 0-.821 1.083l-.576.759a.94.94 0 1 0-.297.391l-.776 1.024a.94.94 0 0 0-.736.916l.003.051-.274.363a.938.938 0 0 0-.99 1.306l-.086.113a.938.938 0 0 0-1.108 1.462l-.016.021a.938.938 0 1 0-1.132 1.493l-.036.048a.938.938 0 1 0-1.067 1.407l-.155.204a.937.937 0 0 0-1.846.241c0 .519.42.939.939.939l.013-.001-.43.567a.94.94 0 0 0-1.824-.433l-.208-.165a.939.939 0 1 0-1.172-.934l-.429-.342c-.017-.014-.035-.026-.053-.038.026.002.052.004.078.004a.938.938 0 1 0-.639-.252l-.036-.006a.938.938 0 0 0-1.606.661l.003.054-.358.351-.047-.002a.94.94 0 0 0-.937.969l-.379.372-.023-.001a.938.938 0 0 0-.792.436l.035-.105zm-.182.614l-.036.036.04-.119a.967.967 0 0 0-.004.077v.006zM32.812 59.47l-.053-.245a.935.935 0 0 0 .336-.145l-.283.39zm3.27-4.269a.938.938 0 1 0-1.13 1.316l-.144.199a.939.939 0 1 0-.904 1.19l.044-.002-.485.67a.94.94 0 0 0-1.098-1.183l-.197-.914a.938.938 0 1 0-.316-1.463l-.006-.029a.936.936 0 0 0 .311-.629h.812a.938.938 0 0 0 1.87 0h.811c.027.352.248.65.556.787a.996.996 0 0 0-.124.058zm4.261 9.896l-.14-.579a.939.939 0 0 0 .351.091l-.211.488zM52.52 77.466l-.251-.88a.94.94 0 0 0 .865-.019l-.614.899zm6.195-9.083a.93.93 0 0 0-.182.267l-.541.793a.938.938 0 0 0-.838 1.228l-.117.172a.937.937 0 0 0-1.027 1.506l-.013.02a.938.938 0 1 0-1.047 1.534l-.074.109a.939.939 0 1 0-.905 1.326l-.359.527a.94.94 0 0 0-1.726-.619l-.019-.067a.937.937 0 0 0-.49-1.714l-.237-.828a.938.938 0 1 0-.454-1.59l-.007-.023a.94.94 0 0 0-.444-1.554l-.239-.836h.002A.938.938 0 1 0 49.5 66.9l-.025-.087a.937.937 0 0 0-.366-1.282l-.268-.939a.94.94 0 0 0-.184-1.86.93.93 0 0 0-.33.061l-.087-.304a.933.933 0 0 0-.224-.782l-.013-.044a.938.938 0 1 0-.257-.901l-.071-.247a.94.94 0 1 0-.513-1.793l-.261-.915a.94.94 0 1 0-.432-1.249 1.434 1.434 0 0 0-.072-.097.939.939 0 1 0-1.311-.53 1.44 1.44 0 0 0-.379.099c-.025-.002-.05-.004-.076-.004a.938.938 0 0 0-.896 1.221l-.083.193a.938.938 0 0 0-.745 1.723l-.074.171a.94.94 0 1 0-.507 1.173l-.383.884a.939.939 0 0 0-.682 1.577l-.009.022a.935.935 0 0 0-1.391.114l-.01-.04a.937.937 0 0 0-.398-1.654l-.198-.824.012.001a.938.938 0 1 0-.438-1.769l-.036-.151a.936.936 0 0 0-.258-1.074l-.015-.06a.938.938 0 1 0-.177-.732l-.073-.304a.939.939 0 1 0-1.108-1.418 1.22 1.22 0 0 0-.058-.014.939.939 0 0 0 .415-.71h.813a.938.938 0 0 0 1.87 0h.812a.938.938 0 0 0 1.87 0h.812a.938.938 0 0 0 1.87 0h.812a.94.94 0 0 0 1.694.48l.017.042a.938.938 0 0 0 .667 1.681l.372.939a.938.938 0 1 0 .427 1.076l.082.208a.94.94 0 0 0 .692 1.745l.097.244a.938.938 0 0 0 .694 1.132 1.46 1.46 0 0 0 .636.26.938.938 0 1 0 1.472-.592l.034-.028a.937.937 0 1 0 1.438-1.198l.017-.014a.936.936 0 0 0 1.147.112l.033.069a.939.939 0 0 0 .68 1.41l.415.86a.938.938 0 1 0 .589 1.221l.076.158a.938.938 0 1 0 .816 1.689l.057.119a.938.938 0 0 0 .627 1.298l.132.272-.574.845zm6.749 5.252L57.307 56.74a1.452 1.452 0 0 0-2.239-.484l-2.482 2.069-1.574-3.97H77.92l-12.456 19.28zm18.33-.373h-.422l-.194-.402h.876l-.26.402zm.867-1.341h-1.936l-.194-.402h2.39l-.26.402zm.866-1.342h-3.45l-.194-.402h3.904l-.26.402zm.867-1.341H81.43l-.194-.402h5.418l-.26.402zm.866-1.341h-6.478l-.194-.402h6.932l-.26.402zm.867-1.341H80.135l-.194-.402h8.446l-.26.402zm.866-1.342h-9.507l-.194-.402H89.253l-.26.402zm.867-1.341H78.84l-.194-.402H90.121l-.261.402zm.866-1.341H78.191l-.194-.402H90.986l-.26.402zm.867-1.342H77.544l-.194-.402H91.852l-.259.402zm.866-1.341h-14.63l.26-.402H92.72l-.261.402zm.867-1.341H78.696l.26-.402H93.586l-.26.402zm.866-1.341h-14.63l.26-.402H94.452l-.26.402zm.867-1.342H80.429l.26-.402H95.319l-.26.402zm.571-1.341H81.295l.084-.13h14.63l-.084.13h-.295z"></path><circle cx="55.364" cy="70.378" r=".939"></circle><circle cx="52.682" cy="73.061" r=".939"></circle><circle cx="58.047" cy="67.696" r=".939"></circle><circle cx="56.705" cy="69.037" r=".939"></circle><circle cx="54.023" cy="71.72" r=".939"></circle><circle cx="49.999" cy="65.013" r=".939"></circle><circle cx="49.999" cy="62.331" r=".939"></circle><circle cx="51.34" cy="69.037" r=".939"></circle><circle cx="51.34" cy="66.355" r=".939"></circle><circle cx="52.681" cy="70.378" r=".939"></circle><circle cx="40.61" cy="60.989" r=".939"></circle><circle cx="40.61" cy="55.624" r=".939"></circle><circle cx="41.951" cy="56.966" r=".939"></circle><circle cx="43.293" cy="55.624" r=".939"></circle><circle cx="40.61" cy="58.307" r=".939"></circle><circle cx="54.023" cy="63.672" r=".939"></circle><circle cx="55.364" cy="65.013" r=".939"></circle><circle cx="54.023" cy="66.355" r=".939"></circle><circle cx="55.364" cy="62.331" r=".939"></circle><circle cx="52.681" cy="65.013" r=".939"></circle><circle cx="56.705" cy="66.355" r=".939"></circle><circle cx="55.364" cy="67.696" r=".939"></circle><circle cx="54.023" cy="69.037" r=".939"></circle><circle cx="52.681" cy="67.696" r=".939"></circle><circle cx="51.34" cy="63.672" r=".939"></circle><circle cx="20.491" cy="30.14" r=".939"></circle><circle cx="8.419" cy="42.212" r=".939"></circle><circle cx="9.761" cy="40.87" r=".939"></circle><circle cx="12.443" cy="35.505" r=".939"></circle><circle cx="13.784" cy="36.847" r=".939"></circle><circle cx="15.126" cy="38.188" r=".939"></circle><circle cx="11.102" cy="36.846" r=".939"></circle><circle cx="9.761" cy="38.188" r=".939"></circle><circle cx="11.102" cy="34.164" r=".939"></circle><circle cx="15.126" cy="40.87" r=".939"></circle><circle cx="16.467" cy="36.846" r=".939"></circle><circle cx="11.102" cy="42.212" r=".939"></circle><circle cx="11.102" cy="39.529" r=".939"></circle><circle cx="12.443" cy="38.188" r=".939"></circle><circle cx="12.443" cy="43.553" r=".939"></circle><circle cx="16.467" cy="39.529" r=".939"></circle><circle cx="12.443" cy="40.87" r=".939"></circle><circle cx="13.784" cy="39.529" r=".939"></circle><circle cx="13.785" cy="42.212" r=".939"></circle><circle cx="21.832" cy="31.481" r=".939"></circle><circle cx="21.832" cy="28.799" r=".939"></circle><circle cx="17.808" cy="35.505" r=".939"></circle><circle cx="20.491" cy="27.458" r=".939"></circle><circle cx="19.15" cy="31.481" r=".939"></circle><circle cx="19.15" cy="34.164" r=".939"></circle><circle cx="20.491" cy="32.823" r=".939"></circle><circle cx="17.808" cy="38.188" r=".939"></circle><circle cx="19.15" cy="36.847" r=".939"></circle></g><!----></svg>